<svg xmlns="http://www.w3.org/2000/svg" viewBox="0 0 500 500">
  <g transform="translate(0,500) scale(0.1,-0.1)" fill="#009F93">
    <path d="M1770 4225 c-77 -18 -133 -40 -215 -84 -112 -60 -175 -109 -175 -136 0 -31 5 -33 108 -50 105 -17 274 -71 391 -126 207 -96 417 -274 536 -454 62 -94 72 -105 92 -105 7 0 37 38 68 84 110 165 259 305 435 408 173 102 315 153 575 206 33 6 41 12 43 33 2 20 -9 33 -65 74 -227 164 -473 207 -703 124 -115 -42 -236 -125 -320 -221 l-35 -39 -65 67 c-107 110 -249 192 -390 223 -61 14 -213 12 -280 -4z m285 -90 c108 -27 217 -90 303 -174 42 -42 88 -92 102 -110 34 -45 61 -37 116 32 51 66 157 155 231 195 134 71 298 90 445 53 73 -19 191 -71 202 -90 3 -5 -11 -12 -32 -16 -74 -14 -249 -78 -346 -126 -233 -117 -408 -261 -536 -441 -18 -27 -34 -48 -36 -48 -1 0 -25 31 -52 68 -64 85 -228 245 -307 298 -177 120 -390 215 -560 252 l-40 9 70 35 c62 30 137 57 200 71 47 11 185 6 240 -8z M1225 3484 c-150 -21 -194 -29 -293 -55 -112 -29 -235 -73 -260 -92 -9 -8 -12 -214 -10 -996 3 -981 3 -986 23 -989 11 -1 68 19 125 46 388 183 820 217 1190 95 146 -48 324 -146 441 -244 26 -22 53 -39 61 -39 8 0 44 23 79 52 217 174 460 269 768 299 256 25 572 -36 841 -163 57 -27 114 -47 125 -46 20 3 20 11 29 970 4 532 6 978 2 991 -6 27 -71 57 -212 101 -180 55 -292 71 -519 70 -235 0 -313 -11 -495 -70 -247 -80 -451 -223 -568 -399 l-48 -71 -45 65 c-156 229 -405 381 -742 452 -89 19 -412 34 -492 23z m310 -84 c260 -23 466 -96 650 -228 93 -67 197 -183 243 -272 l32 -63 0 -743 c0 -409 -2 -744 -5 -744 -2 0 -37 22 -77 49 -196 131 -379 199 -638 237 -286 41 -658 -16 -929 -145 -35 -16 -68 -28 -73 -25 -6 4 -8 379 -7 906 l2 899 28 15 c50 26 261 82 369 98 169 25 262 29 405 16z m2345 -16 c115 -18 232 -48 320 -83 l65 -26 3 -550 c1 -303 -1 -711 -5 -907 l-8 -357 -65 31 c-87 40 -255 95 -365 118 -379 80 -753 33 -1066 -133 -82 -44 -183 -108 -187 -119 -18 -45 -22 76 -22 740 l0 747 41 73 c96 174 299 330 534 410 223 77 490 96 755 56z M1460 1059 c-19 -6 -66 -19 -105 -31 -38 -11 -92 -27 -120 -35 -27 -8 -57 -17 -65 -20 -8 -3 11 -13 45 -23 33 -10 112 -34 175 -54 l115 -36 1173 0 1172 0 0 105 0 105 -1177 -1 c-720 0 -1192 -5 -1213 -10z"/>
  </g>
</svg>
